<?xml version="1.0" encoding="utf-8"?>
<!-- Generator: Adobe Illustrator 22.0.1, SVG Export Plug-In . SVG Version: 6.00 Build 0)  -->
<svg version="1.1" id="Capa_1" xmlns="http://www.w3.org/2000/svg" xmlns:xlink="http://www.w3.org/1999/xlink" x="0px" y="0px"
	 viewBox="0 0 272.7 60.5" style="enable-background:new 0 0 272.7 60.5;" xml:space="preserve">
<style type="text/css">
	.st0{fill:#039AA1;}
	.st1{enable-background:new    ;}
</style>
<g id="Group_2565" transform="translate(-17391 -16107)">
	<g id="Group_2564" transform="translate(740.791 182)">
		<path id="Path_1765" class="st0" d="M16682.1,15925c0.1,0,0.2,0,0.3,0.1c4.4,0.2,8.8,1.5,12.6,3.7c0.1,0,0.2,0.1,0.3,0.2
			c-1.2,1.3-2.5,2.5-3.7,3.8c-0.2-0.1-0.3-0.1-0.5-0.2c-1.9-1-3.9-1.6-6-2c-1.3-0.2-2.6-0.3-3.9-0.4c-12-0.4-22.5,7.8-25.2,19.4
			c-0.4,1.7-0.6,3.4-0.6,5.1c-0.2,6.9,2.5,13.5,7.4,18.3c3.6,3.6,8.2,6,13.2,6.9c8,1.5,16.1-1,21.9-6.7c3.7-3.6,6.2-8.2,7.2-13.3
			c0.5-2.3,0.6-4.7,0.3-7.1c-0.4-4.4-2-8.6-4.6-12.2l-0.6-0.8c0,0-0.1,0-0.1,0c-6,5.6-11.7,11.5-17.4,17.3c-1-1.1-2.1-2.1-3.1-3.2
			l21.1-21.2c0.3,0.3,0.6,0.5,0.8,0.8c12,11.6,12.3,30.8,0.7,42.8c-3.4,3.5-7.5,6.1-12.1,7.6c-2.2,0.7-4.5,1.2-6.8,1.4
			c-0.4,0-0.8,0.1-1.2,0.1h-3.5c-0.1,0-0.2,0-0.3-0.1c-1.5-0.1-2.9-0.3-4.3-0.6c-6-1.3-11.4-4.3-15.6-8.8c-5.7-6-8.7-14-8.2-22.3
			c0.1-1.8,0.3-3.6,0.8-5.4c1.8-7.7,6.5-14.4,13.2-18.6c4.1-2.7,8.8-4.3,13.7-4.6c0.4,0,0.7-0.1,1.1-0.1H16682.1z"/>
		<path id="Path_1766" d="M16922.9,15952.5h-2.9c0-0.6,0-1.1,0-1.7c-0.1,0.1-0.2,0.2-0.3,0.3c-0.5,0.7-1.2,1.2-2.1,1.4
			c-1.3,0.3-2.6,0.3-3.8-0.2c-1.3-0.5-2.2-1.7-2.2-3.1c0-0.5,0-0.9,0.1-1.4c0.2-1,0.9-1.8,1.9-2.2c0.9-0.4,1.8-0.6,2.7-0.5
			c1,0,2.1,0,3.1,0h0.4c0-0.1,0-0.2,0-0.3c0-0.3-0.1-0.5-0.1-0.8c-0.1-1-1-1.7-1.9-1.7c-0.4,0-0.8,0-1.2,0c-0.8,0.1-1.6,0.5-2.1,1.1
			c-0.1,0.1-0.2,0.2-0.2,0.3c-0.6-0.6-1.2-1.1-1.8-1.7c0.1-0.2,0.3-0.3,0.4-0.4c1-1,2.4-1.7,3.9-1.7c0.9-0.1,1.8,0,2.7,0.2
			c1.7,0.5,2.9,1.8,3.2,3.5c0,0.2,0.1,0.3,0.1,0.5C16922.9,15947,16922.9,15949.8,16922.9,15952.5z M16920,15947.3
			c-0.1,0-0.2,0-0.2,0c-1,0-2,0-3.1,0c-0.4,0-0.9,0.1-1.3,0.3c-0.3,0.1-0.6,0.4-0.7,0.8c-0.3,0.8,0.1,1.6,0.8,1.9c0,0,0.1,0,0.1,0
			c0.1,0.1,0.3,0.1,0.4,0.1c0.5,0,1,0.1,1.5,0c0.6,0,1.1-0.2,1.6-0.6c0.4-0.3,0.7-0.7,0.7-1.1
			C16920,15948.2,16920,15947.8,16920,15947.3L16920,15947.3z"/>
		<path id="Path_1767" d="M16869.9,15932.5c0.1,0,0.2,0,0.2,0c2.4,0,4.9,0,7.4,0c1,0,1.9,0.2,2.8,0.7c1.5,0.7,2.4,2.2,2.5,3.9
			c0.1,0.6,0,1.2-0.1,1.8c-0.3,1-1,1.9-2,2.3c-0.1,0.1-0.3,0.1-0.4,0.2c0,0,0,0,0,0.1c0.1,0,0.3,0.1,0.4,0.1c1.8,0.5,3.2,2,3.5,3.8
			c0.3,1.3,0.1,2.7-0.5,4c-0.8,1.6-2.3,2.8-4.1,3.1c-0.6,0.1-1.1,0.2-1.7,0.2c-2.5,0-5,0-7.5,0h-0.4L16869.9,15932.5z
			 M16873,15949.8h4.3c0.3,0,0.5,0,0.8,0c1.4-0.1,2.6-1.1,2.8-2.5c0.1-0.5,0.1-1.1,0-1.6c-0.1-1.2-1-2.2-2.2-2.5
			c-0.4-0.1-0.8-0.2-1.3-0.2c-1.4,0-2.8,0-4.2,0c-0.1,0-0.2,0-0.3,0L16873,15949.8z M16873,15940.3c0.1,0,0.2,0,0.2,0h3.8
			c0.2,0,0.5,0,0.7-0.1c0.7-0.1,1.3-0.5,1.7-1.2c0.3-0.5,0.3-1.2,0.2-1.8c-0.1-1.1-0.9-1.9-2-2c-0.2,0-0.4-0.1-0.6-0.1h-3.9
			c-0.1,0-0.2,0-0.2,0C16873,15937,16873,15938.7,16873,15940.3L16873,15940.3z"/>
		<path id="Path_1768" d="M16793.5,15935l-2,2c-0.1,0-0.1-0.1-0.2-0.1c-1.1-1.1-2.5-1.7-4.1-1.7c-1.1-0.1-2.2,0.1-3.3,0.4
			c-1.8,0.7-3.1,2.1-3.8,3.8c-0.7,1.8-0.8,3.8-0.1,5.7c0.7,2.3,2.6,4,4.9,4.5c2,0.5,4.1,0.3,6-0.5c0.3-0.1,0.6-0.3,0.9-0.5
			c0-0.3,0-0.6,0-0.9v-2.5c-0.4,0-0.7,0-1.1,0h-4.2v-2.6c0.3-0.1,7.6-0.1,8.1,0c0,0.1,0,0.2,0,0.3v7.1c0,0.2-0.1,0.4-0.2,0.5
			c-1.1,0.9-2.4,1.5-3.8,1.8c-2.3,0.7-4.8,0.7-7.2,0c-3.7-1-6.4-4.1-6.9-7.9c-0.4-2.1-0.1-4.3,0.9-6.3c1.2-2.6,3.6-4.5,6.4-5.2
			c2.2-0.5,4.4-0.4,6.6,0.3c1.1,0.4,2.1,1,2.9,1.8C16793.3,15934.9,16793.4,15935,16793.5,15935z"/>
		<path id="Path_1769" d="M16731.3,15945.1h-5.2c0-0.9,0-1.8,0-2.7h8.1c0,0.1,0,0.2,0,0.3v7.1c0,0.2-0.1,0.3-0.2,0.4
			c-0.9,0.7-1.8,1.2-2.9,1.6c-2.6,1-5.5,1.1-8.1,0.3c-3.7-1-6.4-4.2-6.8-8c-0.4-2.2,0-4.4,1-6.4c1.3-2.7,3.8-4.5,6.7-5.1
			c2.1-0.5,4.4-0.3,6.4,0.4c1,0.4,1.9,0.9,2.7,1.7l0.2,0.2c0,0,0,0.1,0,0.1l-2,2c0,0-0.1,0-0.1-0.1c-1-1-2.4-1.7-3.9-1.8
			c-1.1-0.1-2.2,0-3.3,0.4c-1.8,0.6-3.2,2-3.9,3.7c-0.8,1.9-0.9,4.1-0.1,6.1c0.8,2.2,2.7,3.9,5.1,4.3c1.9,0.4,3.8,0.2,5.6-0.5
			c0.3-0.1,0.6-0.3,0.9-0.5c0.1,0,0.2-0.2,0.2-0.3c0-1.1,0-2.1,0-3.2C16731.4,15945.2,16731.4,15945.2,16731.3,15945.1z"/>
		<path id="Path_1770" d="M16769.2,15936.4c-0.8,0.6-1.6,1.1-2.3,1.7c-0.1-0.1-0.1-0.2-0.2-0.3c-1-1.4-2.5-2.3-4.2-2.5
			c-1.3-0.2-2.7-0.1-3.9,0.5c-2,0.8-3.4,2.5-3.9,4.6c-0.6,2.1-0.3,4.3,0.7,6.1c1,1.9,2.9,3.1,5,3.3c1.4,0.2,2.9,0,4.2-0.6
			c0.9-0.5,1.8-1.2,2.4-2c0.1-0.1,0.2-0.2,0.3-0.4c0.8,0.5,1.5,1.1,2.3,1.7c-0.1,0.1-0.1,0.2-0.2,0.3c-1.4,2-3.6,3.4-6.1,3.7
			c-2,0.4-4.1,0.1-6-0.7c-3.2-1.3-5.5-4.3-5.9-7.7c-0.4-2.1,0-4.2,0.9-6.1c1.3-2.8,3.8-4.7,6.8-5.3c2.1-0.5,4.3-0.3,6.4,0.5
			C16767,15933.8,16768.3,15934.9,16769.2,15936.4z"/>
		<path id="Path_1771" d="M16902.7,15945.7c0.1-0.1,0.2-0.2,0.3-0.3c1.5-1.7,2.9-3.3,4.4-5c0.1-0.2,0.4-0.3,0.6-0.3
			c0.9,0,1.8,0,2.7,0h0.3c0,0,0,0,0,0.1c0,0,0,0,0,0c0,0,0,0.1-0.1,0.1l-4.4,5c0,0,0,0,0,0.1c1.7,2.4,3.4,4.7,5.1,7.2
			c-0.2,0-0.3,0-0.4,0h-2.8c-0.2,0-0.4-0.1-0.5-0.3c-1.1-1.6-2.2-3.1-3.3-4.7c-0.1-0.1-0.1-0.2-0.2-0.3c-0.5,0.5-1,1-1.5,1.5
			c-0.1,0.1-0.1,0.2-0.1,0.4v3.3h-3v-21.2c1-0.1,2-0.1,2.9,0c0,0.1,0,0.1,0,0.2c0,4.1,0,8.3,0,12.4c0,0.5-0.1,1-0.1,1.5V15945.7z"/>
		<path id="Path_1772" d="M16734.5,15932.7h3.3c0.1,0.1,0.1,0.2,0.2,0.4c1.5,3.5,2.9,6.9,4.4,10.4c0.4,0.9,0.6,1.8,0.9,2.7
			c0,0.1,0.1,0.2,0.1,0.4c0,0,0.1,0,0.1-0.1c0.6-2,1.3-3.9,2.2-5.8c1-2.5,2.1-5.1,3.2-7.6c0-0.1,0.1-0.2,0.2-0.4h3
			c-2.8,6.6-5.6,13.3-8.4,19.9h-0.4C16740.3,15945.9,16737.4,15939.3,16734.5,15932.7z"/>
		<path id="Path_1773" d="M16898.1,15947.4h-9.9c0.1,0.8,0.5,1.4,1,2c0.4,0.4,1,0.7,1.6,0.8c0.8,0.2,1.5,0.2,2.3,0.1
			c0.9-0.2,1.8-0.6,2.5-1.2c0.6,0.6,1.1,1.2,1.7,1.8c-0.1,0.1-0.2,0.2-0.4,0.3c-1.1,1-2.6,1.6-4.1,1.7c-1.3,0.1-2.7-0.1-4-0.6
			c-2.1-0.8-3.6-2.8-3.8-5.1c-0.3-2.6,0.9-5.1,3.2-6.4c1.1-0.6,2.4-0.9,3.6-0.8c0.9,0,1.8,0.2,2.6,0.6c1.6,0.8,2.8,2.2,3.2,3.9
			c0.3,0.9,0.4,1.9,0.3,2.8C16898.2,15947.3,16898.2,15947.3,16898.1,15947.4z M16895.2,15945.3c-0.1-0.5-0.3-1.1-0.5-1.5
			c-0.4-0.7-1.1-1.2-1.9-1.3c-0.5-0.1-1-0.1-1.5,0c-1.4,0.1-2.5,1-2.9,2.4c0,0.1-0.1,0.3-0.1,0.5
			C16890.5,15945.3,16892.8,15945.3,16895.2,15945.3z"/>
		<path id="Path_1774" d="M16823.5,15947.3h-9.8c0,0.1,0,0.3,0.1,0.4c0.3,1.3,1.4,2.3,2.7,2.4c1.5,0.3,3.2-0.1,4.4-1.1
			c0,0,0.1,0,0.1-0.1c0,0,0,0,0.1,0c0.5,0.6,1.1,1.2,1.7,1.8c-0.1,0.1-0.2,0.1-0.3,0.2c-0.9,0.8-2.1,1.4-3.3,1.6
			c-1.4,0.3-2.9,0.2-4.3-0.3c-2.5-0.8-4.2-3.1-4.2-5.7c-0.1-3.1,2.1-5.9,5.2-6.4c1.1-0.2,2.2-0.2,3.2,0.1c1.5,0.4,2.8,1.4,3.5,2.8
			C16823.2,15944.3,16823.6,15945.8,16823.5,15947.3z M16813.7,15945.2c0.5,0.1,6.5,0.1,6.8,0c-0.1-1.2-0.9-2.1-1.9-2.6
			c-1-0.4-2.1-0.3-3.1,0.1C16814.5,15943.2,16813.8,15944.1,16813.7,15945.2L16813.7,15945.2z"/>
		<path id="Path_1775" d="M16808,15952.3h-2.9c0-0.5,0-1,0.1-1.6c-0.1,0.1-0.2,0.2-0.2,0.3c-0.8,1-2,1.6-3.3,1.7
			c-0.8,0-1.5,0-2.3-0.3c-1.4-0.4-2.4-1.8-2.4-3.3c0-0.4,0-0.9,0.1-1.3c0.2-0.8,0.7-1.5,1.4-1.9c0.7-0.4,1.4-0.7,2.2-0.7
			c1.3-0.1,2.6-0.1,3.9-0.1h0.4c0.3-1.2-0.4-2.4-1.6-2.7c0,0-0.1,0-0.1,0c-1.3-0.2-2.7,0.2-3.6,1.2c-0.1,0.1-0.1,0.1-0.1,0.2
			c-0.6-0.6-1.2-1.1-1.8-1.7c0.3-0.3,0.6-0.6,0.9-0.8c0.8-0.6,1.7-1,2.6-1.2c1-0.2,2.1-0.2,3.1,0c1.8,0.3,3.2,1.8,3.5,3.6
			c0.1,0.5,0.1,0.9,0.1,1.4c0,2.3,0,4.6,0,7C16808,15952.2,16808,15952.3,16808,15952.3z M16805,15947.2c-0.1,0-0.1,0-0.2,0
			c-1.1,0-2.1,0-3.2,0c-0.3,0-0.6,0.1-0.9,0.2c-0.6,0.2-0.9,0.7-0.9,1.3c-0.1,0.6,0.3,1.2,0.8,1.4c0.3,0.1,0.6,0.2,0.9,0.3
			c0.8,0.1,1.5,0,2.2-0.3c0.5-0.2,1-0.7,1.1-1.3C16805,15948.2,16805.1,15947.7,16805,15947.2L16805,15947.2z"/>
		<path id="Path_1776" d="M16856.9,15939.9c1.9-0.1,3.8,0.7,5.1,2.1c1.2,1.3,1.7,3,1.6,4.8c-0.2,3-2.6,5.4-5.6,5.7
			c-1.9,0.3-3.8-0.2-5.3-1.4c-1.7-1.3-2.5-3.4-2.2-5.5c0.3-2.9,2.6-5.2,5.5-5.6C16856.3,15940,16856.6,15940,16856.9,15939.9z
			 M16857,15950.1c1.6,0.1,3-1,3.4-2.6c0.2-0.8,0.2-1.7,0-2.5c-0.3-1.2-1.2-2.1-2.4-2.4c-0.4-0.1-0.9-0.1-1.3-0.1
			c-1.3,0.1-2.4,0.9-2.9,2.2c-0.3,0.8-0.4,1.6-0.2,2.5C16853.7,15948.9,16855.3,15950.2,16857,15950.1L16857,15950.1z"/>
		<path id="Path_1777" d="M16834.4,15941.7c-0.5,0.6-1.1,1.1-1.7,1.7l-0.3-0.3c-0.8-0.8-2-1.1-3.1-0.8c-0.4,0.1-0.8,0.4-0.9,0.8
			c-0.1,0.4,0,0.9,0.4,1.1c0.2,0.1,0.4,0.2,0.7,0.3c0.6,0.2,1.3,0.4,2,0.6c0.6,0.2,1.1,0.4,1.7,0.6c1.3,0.6,2.1,2,1.9,3.4
			c0,1.4-1,2.7-2.4,3.1c-0.3,0.1-0.6,0.2-0.9,0.2c-1.5,0.3-3,0.1-4.3-0.4c-0.9-0.3-1.7-0.9-2.3-1.6c-0.1-0.1-0.1-0.2-0.2-0.3
			c0-0.1-0.1-0.1-0.1-0.2c0.7-0.5,1.3-0.9,2-1.4c0,0.1,0.1,0.1,0.1,0.2c0.7,0.9,1.8,1.4,2.9,1.4c0.5,0,0.9,0,1.4-0.1
			c0.2-0.1,0.4-0.2,0.6-0.3c0.5-0.4,0.6-1,0.2-1.5c-0.1-0.1-0.2-0.2-0.3-0.3c-0.3-0.1-0.5-0.2-0.8-0.3c-0.6-0.2-1.3-0.4-2-0.6
			c-0.5-0.2-1.1-0.4-1.6-0.6c-1.6-0.9-2.2-3-1.3-4.7c0.3-0.6,0.9-1.1,1.5-1.4c0.5-0.2,1-0.4,1.6-0.5c1.8-0.3,3.6,0.3,4.9,1.6
			C16834.3,15941.6,16834.4,15941.7,16834.4,15941.7z"/>
		<path id="Path_1778" d="M16848.6,15942.3c-0.7,0.6-1.4,1.1-2.1,1.7c-0.1-0.1-0.1-0.1-0.2-0.2c-0.7-0.8-1.8-1.3-2.9-1.2
			c-1.7,0.1-3.1,1.4-3.2,3c-0.1,0.7,0,1.4,0.1,2.1c0.4,1.5,1.9,2.6,3.5,2.4c1,0,2-0.5,2.6-1.2c0,0,0.1-0.1,0.1-0.1c0,0,0,0,0.1,0
			c0.6,0.6,1.3,1.1,2,1.7c-0.1,0.1-0.1,0.2-0.2,0.2c-1.1,1.2-2.5,1.9-4.1,2c-1.2,0.1-2.4-0.1-3.5-0.6c-2.1-0.9-3.5-2.9-3.6-5.2
			c-0.4-3.3,2-6.4,5.3-6.9c1.2-0.2,2.3-0.1,3.4,0.3C16847,15940.7,16848,15941.4,16848.6,15942.3z"/>
	</g>
	<g class="st1">
		<path d="M17470.6,16153.7c0,0.5-0.1,1-0.3,1.4c-0.2,0.4-0.5,0.8-0.9,1c-0.4,0.3-0.8,0.5-1.3,0.6c-0.5,0.1-1,0.2-1.6,0.2h-6.2
			v-12.8h6.8c0.4,0,0.8,0.1,1.2,0.3c0.4,0.2,0.7,0.4,0.9,0.7c0.3,0.3,0.4,0.7,0.6,1c0.1,0.4,0.2,0.8,0.2,1.2c0,0.6-0.2,1.2-0.5,1.8
			c-0.3,0.5-0.8,1-1.4,1.2c0.7,0.2,1.3,0.6,1.7,1.2C17470.4,16152.2,17470.6,16152.9,17470.6,16153.7z M17462.8,16146.3v3.2h3.3
			c0.4,0,0.8-0.1,1.1-0.4c0.3-0.3,0.4-0.7,0.4-1.2c0-0.5-0.1-0.9-0.4-1.2s-0.6-0.4-1-0.4H17462.8z M17468.1,16153.2
			c0-0.2,0-0.4-0.1-0.7s-0.2-0.4-0.3-0.5c-0.1-0.2-0.3-0.3-0.5-0.4s-0.4-0.1-0.6-0.1h-3.8v3.4h3.7c0.2,0,0.4,0,0.6-0.1
			c0.2-0.1,0.4-0.2,0.5-0.4c0.1-0.1,0.3-0.3,0.3-0.5S17468.1,16153.5,17468.1,16153.2z"/>
		<path d="M17475.9,16157.2c-1,0-1.7-0.3-2.2-0.9s-0.8-1.5-0.8-2.8v-5.9h2.4v5.4c0,1.5,0.5,2.2,1.6,2.2c0.5,0,0.9-0.1,1.4-0.4
			s0.8-0.7,1.1-1.3v-5.8h2.4v6.7c0,0.3,0,0.4,0.1,0.5c0.1,0.1,0.2,0.2,0.4,0.2v2.1c-0.2,0-0.4,0.1-0.6,0.1s-0.3,0-0.4,0
			c-0.4,0-0.8-0.1-1.1-0.3c-0.3-0.2-0.4-0.5-0.5-0.8l-0.1-0.8c-0.4,0.6-1,1.1-1.6,1.5
			C17477.4,16157,17476.7,16157.2,17475.9,16157.2z"/>
		<path d="M17488.4,16157.2c-0.8,0-1.6-0.1-2.3-0.4c-0.8-0.3-1.4-0.6-1.9-1.1l0.9-1.5c0.6,0.4,1.1,0.7,1.7,0.9
			c0.5,0.2,1.1,0.3,1.6,0.3c0.5,0,0.9-0.1,1.1-0.3c0.3-0.2,0.4-0.4,0.4-0.8s-0.2-0.6-0.5-0.7c-0.3-0.2-0.9-0.3-1.6-0.5
			c-0.6-0.2-1.1-0.3-1.6-0.5c-0.4-0.2-0.8-0.3-1-0.5c-0.3-0.2-0.5-0.4-0.6-0.7c-0.1-0.3-0.2-0.6-0.2-0.9c0-0.5,0.1-0.9,0.3-1.3
			c0.2-0.4,0.4-0.7,0.8-1c0.3-0.3,0.7-0.5,1.2-0.6c0.5-0.1,0.9-0.2,1.5-0.2c0.7,0,1.4,0.1,2,0.3c0.6,0.2,1.2,0.5,1.7,1l-1,1.5
			c-0.5-0.4-0.9-0.6-1.4-0.8c-0.5-0.2-0.9-0.3-1.3-0.3c-0.4,0-0.8,0.1-1,0.3c-0.3,0.2-0.4,0.4-0.4,0.8c0,0.2,0,0.3,0.1,0.4
			c0.1,0.1,0.2,0.2,0.3,0.3c0.1,0.1,0.3,0.2,0.6,0.2s0.5,0.2,0.9,0.2c0.6,0.2,1.2,0.3,1.7,0.5c0.5,0.2,0.8,0.4,1.1,0.6
			s0.5,0.5,0.6,0.7c0.1,0.3,0.2,0.6,0.2,1c0,0.9-0.3,1.7-1,2.2S17489.5,16157.2,17488.4,16157.2z"/>
		<path d="M17494.4,16146.3v-2.4h2.4v2.4H17494.4z M17494.4,16157v-9.4h2.4v9.4H17494.4z"/>
		<path d="M17508.4,16157h-2.4v-5.3c0-0.8-0.1-1.3-0.4-1.7c-0.3-0.3-0.6-0.5-1.1-0.5c-0.2,0-0.5,0-0.7,0.1c-0.3,0.1-0.5,0.2-0.7,0.4
			s-0.4,0.4-0.6,0.6s-0.3,0.5-0.4,0.8v5.5h-2.4v-9.4h2.2v1.7c0.3-0.6,0.9-1.1,1.5-1.4s1.4-0.5,2.2-0.5c0.6,0,1.1,0.1,1.4,0.3
			c0.4,0.2,0.7,0.5,0.9,0.8c0.2,0.3,0.3,0.7,0.4,1.2c0.1,0.4,0.1,0.9,0.1,1.4V16157z"/>
		<path d="M17515.6,16157.2c-0.8,0-1.4-0.1-2.1-0.4s-1.1-0.6-1.6-1.1s-0.8-1-1-1.5c-0.2-0.6-0.4-1.2-0.4-1.9c0-0.7,0.1-1.3,0.3-1.9
			c0.2-0.6,0.6-1.1,1-1.6c0.4-0.5,1-0.8,1.6-1.1c0.6-0.3,1.3-0.4,2.1-0.4c0.8,0,1.5,0.1,2.1,0.4c0.6,0.3,1.1,0.6,1.5,1.1
			c0.4,0.4,0.8,1,1,1.5s0.3,1.2,0.3,1.8c0,0.2,0,0.3,0,0.5c0,0.1,0,0.3,0,0.4h-7.3c0,0.4,0.1,0.7,0.3,1c0.1,0.3,0.3,0.5,0.6,0.7
			c0.2,0.2,0.5,0.4,0.8,0.5c0.3,0.1,0.6,0.2,0.9,0.2c0.5,0,0.9-0.1,1.4-0.4c0.4-0.2,0.7-0.5,0.9-0.9l2.1,0.6
			c-0.3,0.7-0.9,1.3-1.7,1.8S17516.6,16157.2,17515.6,16157.2z M17518,16151.5c-0.1-0.7-0.3-1.3-0.8-1.7c-0.5-0.4-1-0.6-1.7-0.6
			c-0.3,0-0.6,0.1-0.9,0.2c-0.3,0.1-0.5,0.3-0.7,0.5c-0.2,0.2-0.4,0.5-0.5,0.7c-0.1,0.3-0.2,0.6-0.2,1H17518z"/>
		<path d="M17526.2,16157.2c-0.8,0-1.6-0.1-2.3-0.4s-1.4-0.6-1.9-1.1l0.9-1.5c0.6,0.4,1.1,0.7,1.7,0.9c0.5,0.2,1.1,0.3,1.6,0.3
			c0.5,0,0.9-0.1,1.1-0.3c0.3-0.2,0.4-0.4,0.4-0.8s-0.2-0.6-0.5-0.7c-0.3-0.2-0.9-0.3-1.6-0.5c-0.6-0.2-1.1-0.3-1.6-0.5
			c-0.4-0.2-0.8-0.3-1-0.5c-0.3-0.2-0.5-0.4-0.6-0.7c-0.1-0.3-0.2-0.6-0.2-0.9c0-0.5,0.1-0.9,0.3-1.3s0.4-0.7,0.8-1
			c0.3-0.3,0.7-0.5,1.2-0.6c0.5-0.1,0.9-0.2,1.5-0.2c0.7,0,1.4,0.1,2,0.3c0.6,0.2,1.2,0.5,1.7,1l-1,1.5c-0.5-0.4-0.9-0.6-1.4-0.8
			c-0.5-0.2-0.9-0.3-1.3-0.3c-0.4,0-0.8,0.1-1,0.3c-0.3,0.2-0.4,0.4-0.4,0.8c0,0.2,0,0.3,0.1,0.4c0.1,0.1,0.2,0.2,0.3,0.3
			s0.3,0.2,0.6,0.2s0.5,0.2,0.9,0.2c0.6,0.2,1.2,0.3,1.7,0.5c0.5,0.2,0.8,0.4,1.1,0.6c0.3,0.2,0.5,0.5,0.6,0.7
			c0.1,0.3,0.2,0.6,0.2,1c0,0.9-0.3,1.7-1,2.2C17528.3,16156.9,17527.4,16157.2,17526.2,16157.2z"/>
		<path d="M17535.8,16157.2c-0.8,0-1.6-0.1-2.3-0.4c-0.8-0.3-1.4-0.6-1.9-1.1l0.9-1.5c0.6,0.4,1.1,0.7,1.7,0.9
			c0.5,0.2,1.1,0.3,1.6,0.3c0.5,0,0.9-0.1,1.1-0.3c0.3-0.2,0.4-0.4,0.4-0.8s-0.2-0.6-0.5-0.7c-0.3-0.2-0.9-0.3-1.6-0.5
			c-0.6-0.2-1.1-0.3-1.6-0.5c-0.4-0.2-0.8-0.3-1-0.5c-0.3-0.2-0.5-0.4-0.6-0.7c-0.1-0.3-0.2-0.6-0.2-0.9c0-0.5,0.1-0.9,0.3-1.3
			s0.4-0.7,0.8-1c0.3-0.3,0.7-0.5,1.2-0.6c0.5-0.1,0.9-0.2,1.5-0.2c0.7,0,1.4,0.1,2,0.3s1.2,0.5,1.7,1l-1,1.5
			c-0.5-0.4-0.9-0.6-1.4-0.8c-0.5-0.2-0.9-0.3-1.3-0.3c-0.4,0-0.8,0.1-1,0.3c-0.3,0.2-0.4,0.4-0.4,0.8c0,0.2,0,0.3,0.1,0.4
			c0.1,0.1,0.2,0.2,0.3,0.3c0.1,0.1,0.3,0.2,0.6,0.2c0.2,0.1,0.5,0.2,0.9,0.2c0.6,0.2,1.2,0.3,1.7,0.5c0.5,0.2,0.8,0.4,1.1,0.6
			c0.3,0.2,0.5,0.5,0.6,0.7c0.1,0.3,0.2,0.6,0.2,1c0,0.9-0.3,1.7-1,2.2S17537,16157.2,17535.8,16157.2z"/>
	</g>
	<g class="st1">
		<path d="M17546.6,16144.2h0.8l5.4,12.8h-1l-1.8-4.2h-6.1l-1.8,4.2h-1L17546.6,16144.2z M17549.8,16152l-2.8-6.7l-2.8,6.7H17549.8z
			"/>
		<path d="M17562.8,16157h-0.9v-5.2c0-1.2-0.2-2.1-0.5-2.6c-0.3-0.6-0.9-0.8-1.6-0.8c-0.4,0-0.8,0.1-1.2,0.2
			c-0.4,0.1-0.8,0.3-1.1,0.6c-0.3,0.3-0.6,0.6-0.9,0.9c-0.3,0.4-0.4,0.7-0.6,1.1v5.8h-0.9v-9.4h0.8v2.2c0.2-0.4,0.4-0.7,0.7-1
			c0.3-0.3,0.6-0.5,1-0.8c0.4-0.2,0.7-0.4,1.1-0.5c0.4-0.1,0.8-0.2,1.2-0.2c1,0,1.7,0.4,2.2,1.1s0.6,1.7,0.6,3.1V16157z"/>
		<path d="M17568.5,16157.2c-0.4,0-0.8-0.1-1.2-0.2c-0.4-0.2-0.7-0.4-1-0.6c-0.3-0.3-0.5-0.6-0.7-0.9c-0.2-0.4-0.2-0.7-0.2-1.1
			s0.1-0.8,0.3-1.1s0.5-0.6,0.8-0.9s0.8-0.4,1.2-0.6c0.5-0.1,1-0.2,1.6-0.2c0.5,0,1,0,1.5,0.1c0.5,0.1,1,0.2,1.4,0.4v-0.9
			c0-0.9-0.3-1.6-0.8-2.1c-0.5-0.5-1.2-0.8-2.1-0.8c-0.5,0-0.9,0.1-1.4,0.3c-0.5,0.2-1,0.5-1.6,0.8l-0.3-0.6
			c1.2-0.8,2.3-1.2,3.4-1.2c1.1,0,2,0.3,2.7,1s1,1.6,1,2.7v4.6c0,0.3,0.1,0.5,0.4,0.5v0.8c-0.1,0-0.1,0-0.2,0c-0.1,0-0.1,0-0.2,0
			c-0.2,0-0.4-0.1-0.6-0.2c-0.1-0.2-0.2-0.4-0.3-0.6v-0.8c-0.4,0.6-1,1-1.7,1.3C17570,16157,17569.3,16157.2,17568.5,16157.2z
			 M17568.7,16156.5c0.7,0,1.3-0.1,1.9-0.4c0.6-0.3,1-0.6,1.3-1c0.2-0.3,0.3-0.5,0.3-0.7v-1.7c-0.4-0.2-0.9-0.3-1.3-0.4
			c-0.5-0.1-1-0.1-1.5-0.1c-0.5,0-0.9,0.1-1.3,0.2c-0.4,0.1-0.7,0.2-1,0.4c-0.3,0.2-0.5,0.4-0.6,0.7s-0.2,0.5-0.2,0.9
			c0,0.3,0.1,0.6,0.2,0.9c0.1,0.3,0.3,0.5,0.5,0.7c0.2,0.2,0.5,0.4,0.8,0.5C17568,16156.4,17568.3,16156.5,17568.7,16156.5z"/>
		<path d="M17576.6,16143.9h0.9v11.3c0,0.3,0.1,0.6,0.3,0.8c0.2,0.2,0.5,0.3,0.8,0.3c0.1,0,0.3,0,0.5,0c0.2,0,0.4-0.1,0.5-0.1
			l0.2,0.7c-0.2,0.1-0.5,0.2-0.8,0.2c-0.3,0.1-0.6,0.1-0.8,0.1c-0.5,0-0.9-0.2-1.2-0.5c-0.3-0.3-0.5-0.7-0.5-1.2V16143.9z"/>
		<path d="M17582.3,16160.2c0.1,0,0.2,0,0.3,0s0.2,0,0.3,0c0.1,0,0.2,0,0.3-0.1c0.1,0,0.1-0.1,0.2-0.2c0.1-0.1,0.1-0.2,0.3-0.4
			c0.1-0.2,0.2-0.5,0.4-0.9c0.2-0.4,0.4-0.9,0.7-1.6l-4.2-9.4h0.9l3.7,8.5l3.5-8.5h0.9l-5.1,12.3c-0.1,0.3-0.3,0.6-0.6,0.8
			c-0.3,0.2-0.7,0.3-1.2,0.3c0,0-0.1,0-0.2,0c-0.1,0-0.1,0-0.2,0V16160.2z"/>
		<path d="M17596.2,16156.5c0,0-0.1,0.1-0.2,0.1c-0.1,0.1-0.3,0.1-0.4,0.2c-0.2,0.1-0.4,0.1-0.6,0.2s-0.5,0.1-0.7,0.1
			c-0.3,0-0.5,0-0.7-0.1c-0.2-0.1-0.4-0.2-0.6-0.3c-0.2-0.1-0.3-0.3-0.4-0.5s-0.1-0.4-0.1-0.7v-7.1h-1.3v-0.7h1.3v-3.2h0.9v3.2h2.2
			v0.7h-2.2v6.8c0,0.3,0.1,0.6,0.4,0.8c0.2,0.2,0.5,0.3,0.8,0.3c0.4,0,0.7-0.1,1-0.2s0.4-0.2,0.5-0.2L17596.2,16156.5z"/>
		<path d="M17598.4,16145.5v-1.7h0.9v1.7H17598.4z M17598.4,16157v-9.4h0.9v9.4H17598.4z"/>
		<path d="M17602.2,16152.3c0-0.7,0.1-1.3,0.3-1.9c0.2-0.6,0.5-1.1,1-1.5c0.4-0.4,0.9-0.8,1.5-1c0.6-0.3,1.2-0.4,1.9-0.4
			c0.9,0,1.6,0.2,2.3,0.6c0.6,0.4,1.1,0.9,1.5,1.6l-0.9,0.3c-0.3-0.5-0.7-0.9-1.2-1.2c-0.5-0.3-1.1-0.4-1.7-0.4
			c-0.5,0-1,0.1-1.4,0.3c-0.4,0.2-0.8,0.5-1.2,0.8c-0.3,0.4-0.6,0.8-0.8,1.3c-0.2,0.5-0.3,1-0.3,1.6s0.1,1.1,0.3,1.6
			c0.2,0.5,0.5,0.9,0.8,1.3s0.7,0.7,1.2,0.9s0.9,0.3,1.4,0.3c0.3,0,0.6,0,1-0.1c0.3-0.1,0.6-0.2,0.9-0.4c0.3-0.2,0.5-0.3,0.7-0.5
			c0.2-0.2,0.3-0.4,0.4-0.7l0.9,0.3c-0.1,0.3-0.3,0.6-0.6,0.9c-0.2,0.3-0.5,0.5-0.9,0.7s-0.7,0.4-1.1,0.5c-0.4,0.1-0.8,0.2-1.3,0.2
			c-0.7,0-1.3-0.1-1.8-0.4s-1.1-0.6-1.5-1.1c-0.4-0.5-0.7-1-1-1.6S17602.2,16153,17602.2,16152.3z"/>
		<path d="M17616.3,16157.2c-0.7,0-1.4-0.1-2.1-0.4c-0.7-0.2-1.2-0.6-1.7-1.1l0.4-0.6c0.5,0.5,1,0.8,1.6,1c0.5,0.2,1.1,0.3,1.8,0.3
			c0.8,0,1.5-0.2,2-0.5s0.7-0.8,0.7-1.4c0-0.3-0.1-0.5-0.2-0.7c-0.1-0.2-0.3-0.4-0.6-0.5s-0.6-0.3-0.9-0.4s-0.8-0.2-1.3-0.3
			c-0.5-0.1-1-0.2-1.4-0.4c-0.4-0.1-0.7-0.3-1-0.4c-0.3-0.2-0.4-0.4-0.6-0.6c-0.1-0.2-0.2-0.5-0.2-0.9c0-0.5,0.1-0.9,0.3-1.2
			c0.2-0.3,0.4-0.6,0.7-0.9s0.7-0.4,1.1-0.5s0.9-0.2,1.3-0.2c0.7,0,1.4,0.1,1.9,0.4c0.6,0.2,1,0.6,1.3,0.9l-0.5,0.5
			c-0.3-0.4-0.7-0.6-1.2-0.8c-0.5-0.2-1-0.3-1.6-0.3c-0.3,0-0.7,0-1,0.1c-0.3,0.1-0.6,0.2-0.8,0.3c-0.2,0.2-0.4,0.4-0.5,0.6
			c-0.1,0.2-0.2,0.5-0.2,0.9c0,0.3,0,0.5,0.1,0.7s0.2,0.3,0.4,0.4c0.2,0.1,0.5,0.2,0.8,0.3s0.7,0.2,1.1,0.3c0.6,0.1,1.1,0.3,1.6,0.4
			c0.5,0.1,0.8,0.3,1.1,0.5c0.3,0.2,0.5,0.4,0.7,0.7c0.2,0.3,0.2,0.6,0.2,1c0,0.8-0.3,1.5-1,2
			C17618.2,16156.9,17617.4,16157.2,17616.3,16157.2z"/>
	</g>
</g>
</svg>
