<?xml version="1.0" encoding="utf-8"?>
<!-- Generator: Adobe Illustrator 22.0.1, SVG Export Plug-In . SVG Version: 6.00 Build 0)  -->
<svg version="1.1" id="Capa_1" xmlns="http://www.w3.org/2000/svg" xmlns:xlink="http://www.w3.org/1999/xlink" x="0px" y="0px"
	 viewBox="0 0 12.2 22" style="enable-background:new 0 0 12.2 22;" xml:space="preserve">
<style type="text/css">
	.st0{fill:#666666;}
</style>
<g>
	<path class="st0" d="M6.4,10.3L6.7,10c0.1-0.1,0.1-0.2,0-0.3c-0.1-0.1-0.2-0.1-0.3,0L6.1,10L5.8,9.7c-0.1-0.1-0.2-0.1-0.3,0
		c-0.1,0.1-0.1,0.2,0,0.3l0.3,0.3l-0.3,0.3c-0.1,0.1-0.1,0.2,0,0.3c0.1,0.1,0.2,0.1,0.3,0l0.3-0.3l0.3,0.3c0.1,0.1,0.2,0.1,0.3,0
		c0.1-0.1,0.1-0.2,0-0.3L6.4,10.3z"/>
	<path class="st0" d="M8.7,10.3L9,10c0.1-0.1,0.1-0.2,0-0.3c-0.1-0.1-0.2-0.1-0.3,0L8.4,10L8.1,9.7C8,9.6,7.8,9.6,7.8,9.7
		c-0.1,0.1-0.1,0.2,0,0.3l0.3,0.3l-0.3,0.3c-0.1,0.1-0.1,0.2,0,0.3C7.8,11,8,11,8.1,10.9l0.3-0.3l0.3,0.3C8.8,11,8.9,11,9,10.9
		c0.1-0.1,0.1-0.2,0-0.3L8.7,10.3z"/>
	<path class="st0" d="M4.1,10.3L4.4,10c0.1-0.1,0.1-0.2,0-0.3c-0.1-0.1-0.2-0.1-0.3,0L3.8,10L3.5,9.7c-0.1-0.1-0.2-0.1-0.3,0
		c-0.1,0.1-0.1,0.2,0,0.3l0.3,0.3l-0.3,0.3c-0.1,0.1-0.1,0.2,0,0.3c0.1,0.1,0.2,0.1,0.3,0l0.3-0.3l0.3,0.3c0.1,0.1,0.2,0.1,0.3,0
		c0.1-0.1,0.1-0.2,0-0.3L4.1,10.3z"/>
	<path class="st0" d="M8.1,4.7v-1c0-1.1-0.9-2-2-2c-1.1,0-2,0.9-2,2v1c-0.6,0-1,0.4-1,1v2c0,0.6,0.4,1,1,1h4c0.6,0,1-0.4,1-1v-2
		C9.1,5.2,8.7,4.7,8.1,4.7z M5.1,3.7c0-0.6,0.4-1,1-1c0.6,0,1,0.4,1,1v1h-2V3.7z M8.1,7.1c0,0.3-0.3,0.6-0.6,0.6H4.7
		c-0.3,0-0.6-0.3-0.6-0.6V6.3c0-0.3,0.3-0.6,0.6-0.6h2.9c0.3,0,0.6,0.3,0.6,0.6V7.1z"/>
	<path class="st0" d="M6.6,7.2h-1C5.3,7.2,5.1,7,5.1,6.7v0c0-0.3,0.2-0.5,0.5-0.5h1c0.3,0,0.5,0.2,0.5,0.5v0C7.1,7,6.9,7.2,6.6,7.2z
		"/>
	<path class="st0" d="M6.6,7.2h-1C5.3,7.2,5.1,7,5.1,6.7v0c0-0.3,0.2-0.5,0.5-0.5h1c0.3,0,0.5,0.2,0.5,0.5v0C7.1,7,6.9,7.2,6.6,7.2z
		"/>
</g>
</svg>
