<?xml version="1.0" encoding="utf-8"?>
<!-- Generator: Adobe Illustrator 22.0.1, SVG Export Plug-In . SVG Version: 6.00 Build 0)  -->
<svg version="1.1" id="Capa_1" xmlns="http://www.w3.org/2000/svg" xmlns:xlink="http://www.w3.org/1999/xlink" x="0px" y="0px"
	 viewBox="0 0 32 32" style="enable-background:new 0 0 32 32;" xml:space="preserve">
<style type="text/css">
	.st0{fill:url(#Ellipse_4-2_1_);stroke:#0F5D61;stroke-width:2;}
	.st1{fill:#FFFFFF;}
</style>
<g id="icoh-Logout" transform="translate(-15666 -16116)">
	<g transform="matrix(1, 0, 0, 1, 15666, 16116)">
		
			<linearGradient id="Ellipse_4-2_1_" gradientUnits="userSpaceOnUse" x1="-1337.9" y1="562.4333" x2="-1337.9" y2="563.4333" gradientTransform="matrix(30 0 0 30 40153 -16872)">
			<stop  offset="0" style="stop-color:#0F6064"/>
			<stop  offset="1" style="stop-color:#083032"/>
		</linearGradient>
		<circle id="Ellipse_4-2" class="st0" cx="16" cy="16" r="15"/>
	</g>
	<path id="Path_35" class="st1" d="M15682,16132.7c-0.6,0-1-0.3-1-0.7v-7.6c0-0.4,0.4-0.7,1-0.7s1,0.3,1,0.7v7.6
		C15683,16132.4,15682.6,16132.7,15682,16132.7z"/>
	<path id="Path_36" class="st1" d="M15682,16140.6h-0.2c-4.2-0.1-7.6-3.5-7.8-7.7c-0.1-2.1,0.7-4.2,2.2-5.7c0.1-0.1,0.3-0.2,0.5-0.2
		s0.4,0.1,0.5,0.2c0.3,0.3,0.3,0.7,0,0.9c-2.5,2.7-2.3,6.9,0.4,9.4c1.2,1.1,2.8,1.8,4.5,1.8h0.2c3.4-0.1,6.2-2.8,6.4-6.3
		c0.1-1.8-0.5-3.6-1.8-4.9c-0.3-0.3-0.2-0.7,0-0.9c0.1-0.1,0.3-0.2,0.5-0.2s0.4,0.1,0.5,0.2c3,3.2,2.9,8.3-0.4,11.3
		C15686,16139.9,15684,16140.6,15682,16140.6L15682,16140.6z"/>
</g>
</svg>
