<?xml version="1.0" encoding="utf-8"?>
<!-- Generator: Adobe Illustrator 22.0.1, SVG Export Plug-In . SVG Version: 6.00 Build 0)  -->
<svg version="1.1" id="Capa_1" xmlns="http://www.w3.org/2000/svg" xmlns:xlink="http://www.w3.org/1999/xlink" x="0px" y="0px"
	 viewBox="0 0 50 50" style="enable-background:new 0 0 50 50;" xml:space="preserve">
<style type="text/css">
	.st0{fill:#FFFFFF;stroke:#0F5D61;stroke-width:2;}
	.st1{fill:#005D61;stroke:#005D61;stroke-miterlimit:10;}
</style>
<g id="icoh-Logout" transform="translate(-15666 -16116)">
	<g transform="matrix(1, 0, 0, 1, 15666, 16116)">
		<circle id="Ellipse_4-2" class="st0" cx="25" cy="25" r="15"/>
	</g>
	<path id="Path_35" class="st1" d="M15691,16141.7c-0.6,0-1-0.3-1-0.7v-7.6c0-0.4,0.4-0.7,1-0.7s1,0.3,1,0.7v7.6
		C15692,16141.4,15691.6,16141.7,15691,16141.7z"/>
	<path id="Path_36" class="st1" d="M15691,16149.6h-0.2c-4.2-0.1-7.6-3.5-7.8-7.7c-0.1-2.1,0.7-4.2,2.2-5.7c0.1-0.1,0.3-0.2,0.5-0.2
		s0.4,0.1,0.5,0.2c0.3,0.3,0.3,0.7,0,0.9c-2.5,2.7-2.3,6.9,0.4,9.4c1.2,1.1,2.8,1.8,4.5,1.8h0.2c3.4-0.1,6.2-2.8,6.4-6.3
		c0.1-1.8-0.5-3.6-1.8-4.9c-0.3-0.3-0.2-0.7,0-0.9c0.1-0.1,0.3-0.2,0.5-0.2s0.4,0.1,0.5,0.2c3,3.2,2.9,8.3-0.4,11.3
		C15695,16148.9,15693,16149.6,15691,16149.6L15691,16149.6z"/>
</g>
</svg>
