<?xml version="1.0" encoding="utf-8"?>
<!-- Generator: Adobe Illustrator 22.1.0, SVG Export Plug-In . SVG Version: 6.00 Build 0)  -->
<svg version="1.1" id="Capa_1" xmlns="http://www.w3.org/2000/svg" xmlns:xlink="http://www.w3.org/1999/xlink" x="0px" y="0px"
	 viewBox="0 0 66.5 43.4" style="enable-background:new 0 0 66.5 43.4;" xml:space="preserve">
<style type="text/css">
	.st0{fill:#FFFFFF;}
</style>
<path class="st0" d="M44,0.2c-11.9,0-21.6,9.7-21.6,21.6c0,11.9,9.7,21.6,21.6,21.6c11.9,0,21.6-9.7,21.6-21.6
	C65.6,9.9,55.9,0.2,44,0.2z M44,41.3c-10.8,0-19.5-8.7-19.5-19.5c0-10.8,8.7-19.5,19.5-19.5c10.8,0,19.5,8.7,19.5,19.5
	C63.5,32.6,54.7,41.3,44,41.3z"/>
<path id="Path_1730" class="st0" d="M37.3,11.9v20L48.9,25l6.8-4L37.3,11.9z"/>
</svg>
