<svg xmlns="http://www.w3.org/2000/svg" viewBox="-15570 -17811 25.333 30.477">
  <defs>
    <style>
      .cls-1 {
        fill: #fff;
      }
    </style>
  </defs>
  <g id="informe-nav" transform="translate(-15610.856 -17810.999)">
    <g id="Group_2559" data-name="Group 2559" transform="translate(40.856)">
      <path id="Path_1757" data-name="Path 1757" class="cls-1" d="M64.016,0H47.182a2.176,2.176,0,0,0-2.174,2.174V3.562H43.03a2.176,2.176,0,0,0-2.174,2.174V28.3a2.176,2.176,0,0,0,2.174,2.174H59.864A2.176,2.176,0,0,0,62.038,28.3V26.915h1.978a2.176,2.176,0,0,0,2.174-2.174V2.174A2.176,2.176,0,0,0,64.016,0ZM60.3,28.3a.436.436,0,0,1-.435.435H43.03a.436.436,0,0,1-.435-.435V5.735A.436.436,0,0,1,43.03,5.3h1.979V24.742a2.176,2.176,0,0,0,2.174,2.174H60.3V28.3Zm4.152-3.562a.435.435,0,0,1-.435.435H47.182a.435.435,0,0,1-.435-.435V2.174a.435.435,0,0,1,.435-.435H64.016a.435.435,0,0,1,.435.435V24.742Z" transform="translate(-40.856)"/>
      <path id="Path_1758" data-name="Path 1758" class="cls-1" d="M173.593,85.786H160.841a.869.869,0,1,0,0,1.739h12.751a.869.869,0,0,0,0-1.739Z" transform="translate(-152.474 -80.386)"/>
      <path id="Path_1759" data-name="Path 1759" class="cls-1" d="M173.593,151.529H160.841a.869.869,0,1,0,0,1.739h12.751a.869.869,0,0,0,0-1.739Z" transform="translate(-152.474 -141.991)"/>
      <path id="Path_1760" data-name="Path 1760" class="cls-1" d="M173.593,217.27H160.841a.869.869,0,1,0,0,1.739h12.751a.869.869,0,0,0,0-1.739Z" transform="translate(-152.474 -203.594)"/>
      <path id="Path_1761" data-name="Path 1761" class="cls-1" d="M173.593,283.014H160.841a.869.869,0,1,0,0,1.739h12.751a.869.869,0,0,0,0-1.739Z" transform="translate(-152.474 -265.2)"/>
    </g>
  </g>
</svg>
