<?xml version="1.0" encoding="utf-8"?>
<!-- Generator: Adobe Illustrator 22.0.1, SVG Export Plug-In . SVG Version: 6.00 Build 0)  -->
<svg version="1.1" id="Capa_1" xmlns="http://www.w3.org/2000/svg" xmlns:xlink="http://www.w3.org/1999/xlink" x="0px" y="0px"
	 viewBox="0 0 25.3 30.5" style="enable-background:new 0 0 25.3 30.5;" xml:space="preserve">
<style type="text/css">
	.st0{fill:#FFFFFF;}
</style>
<g id="informe" transform="translate(-15645 -17670)">
	<path id="Path_1757" class="st0" d="M15668.2,17670h-16.8c-1.2,0-2.2,1-2.2,2.2v1.4h-2c-1.2,0-2.2,1-2.2,2.2v22.6
		c0,1.2,1,2.2,2.2,2.2h16.8c1.2,0,2.2-1,2.2-2.2v-1.4h2c1.2,0,2.2-1,2.2-2.2v-22.6C15670.3,17671,15669.4,17670,15668.2,17670z
		 M15664.4,17698.3c0,0.2-0.2,0.4-0.4,0.4h-16.8c-0.2,0-0.4-0.2-0.4-0.4v-22.6c0-0.2,0.2-0.4,0.4-0.4h2v19.4c0,1.2,1,2.2,2.2,2.2
		h13.1L15664.4,17698.3L15664.4,17698.3z M15668.6,17694.7c0,0.2-0.2,0.4-0.4,0.4h-16.8c-0.2,0-0.4-0.2-0.4-0.4l0,0v-22.6
		c0-0.2,0.2-0.4,0.4-0.4l0,0h16.8c0.2,0,0.4,0.2,0.4,0.4V17694.7L15668.6,17694.7z"/>
	<path id="Path_1758" class="st0" d="M15666.1,17675.4h-12.8c-0.5,0-0.9,0.4-0.9,0.9s0.4,0.9,0.9,0.9h12.8c0.5,0,0.9-0.4,0.9-0.9
		S15666.6,17675.4,15666.1,17675.4L15666.1,17675.4z"/>
	<path id="Path_1759" class="st0" d="M15666.1,17679.5h-12.8c-0.5,0-0.9,0.4-0.9,0.9s0.4,0.9,0.9,0.9h12.8c0.5,0,0.9-0.4,0.9-0.9
		S15666.6,17679.5,15666.1,17679.5L15666.1,17679.5z"/>
	<path id="Path_1760" class="st0" d="M15666.1,17683.7h-12.8c-0.5,0-0.9,0.4-0.9,0.9s0.4,0.9,0.9,0.9h12.8c0.5,0,0.9-0.4,0.9-0.9
		S15666.6,17683.7,15666.1,17683.7L15666.1,17683.7z"/>
	<path id="Path_1761" class="st0" d="M15666.1,17687.8h-12.8c-0.5,0-0.9,0.4-0.9,0.9s0.4,0.9,0.9,0.9h12.8c0.5,0,0.9-0.4,0.9-0.9
		S15666.6,17687.8,15666.1,17687.8L15666.1,17687.8z"/>
</g>
</svg>
