<svg xmlns="http://www.w3.org/2000/svg" viewBox="-19651 -3882 65.299 69.96">
  <defs>
    <style>
      .cls-1 {
        fill: #fff;
      }
    </style>
  </defs>
  <g id="Group_86" data-name="Group 86" transform="translate(-19651 -3882)">
    <path id="Path_251" data-name="Path 251" class="cls-1" d="M316.513,308.366a1.167,1.167,0,0,0-1.166-1.166h-7a1.166,1.166,0,0,0,0,2.332h7A1.167,1.167,0,0,0,316.513,308.366Z" transform="translate(-267.541 -265.224)"/>
    <path id="Path_252" data-name="Path 252" class="cls-1" d="M326.582,49.662v-5.83a1.166,1.166,0,1,0-2.332,0v5.83a5.837,5.837,0,0,0,5.83,5.83h10.494V77.646a1.166,1.166,0,0,0,2.332,0V54.325a1.167,1.167,0,0,0-1.166-1.166H330.08A3.5,3.5,0,0,1,326.582,49.662Z" transform="translate(-282.274 -36.835)"/>
    <path id="Path_253" data-name="Path 253" class="cls-1" d="M300.61,204.8h-9.328a1.166,1.166,0,1,0,0,2.332h9.328a1.166,1.166,0,1,0,0-2.332Z" transform="translate(-252.803 -176.816)"/>
    <path id="Path_254" data-name="Path 254" class="cls-1" d="M214.113,205.966a1.167,1.167,0,0,0-1.166-1.166h-7a1.166,1.166,0,0,0,0,2.332h7A1.167,1.167,0,0,0,214.113,205.966Z" transform="translate(-179.133 -176.816)"/>
    <path id="Path_255" data-name="Path 255" class="cls-1" d="M205.951,256a1.166,1.166,0,1,0,0,2.332h2.332a1.166,1.166,0,1,0,0-2.332Z" transform="translate(-179.133 -221.02)"/>
    <path id="Path_256" data-name="Path 256" class="cls-1" d="M205.951,155.932h11.66a1.166,1.166,0,0,0,0-2.332h-11.66a1.166,1.166,0,1,0,0,2.332Z" transform="translate(-179.133 -132.612)"/>
    <path id="Path_257" data-name="Path 257" class="cls-1" d="M257.151,258.332h11.659a1.166,1.166,0,1,0,0-2.332H257.151a1.166,1.166,0,1,0,0,2.332Z" transform="translate(-223.337 -221.02)"/>
    <path id="Path_258" data-name="Path 258" class="cls-1" d="M308.351,358.4a1.166,1.166,0,1,0,0,2.332h2.332a1.166,1.166,0,1,0,0-2.332Z" transform="translate(-267.541 -309.428)"/>
    <path id="Path_259" data-name="Path 259" class="cls-1" d="M215.278,307.2h-9.327a1.166,1.166,0,0,0,0,2.332h9.328a1.166,1.166,0,1,0,0-2.332Z" transform="translate(-179.133 -265.224)"/>
    <path id="Path_260" data-name="Path 260" class="cls-1" d="M215.278,358.4h-9.327a1.166,1.166,0,1,0,0,2.332h9.328a1.166,1.166,0,1,0,0-2.332Z" transform="translate(-179.133 -309.428)"/>
    <path id="Path_261" data-name="Path 261" class="cls-1" d="M331.443,328.277l-2.332-2.332a4.381,4.381,0,0,0-6.313,0l-15.276,15.276a1.168,1.168,0,0,0-.342.82v7a1.167,1.167,0,0,0,1.165,1.166h7a1.168,1.168,0,0,0,.82-.342l15.276-15.276A4.261,4.261,0,0,0,331.443,328.277Zm-10.152,2.473,1.851,1.849-10.13,10.13-1.849-1.849Zm-11.778,17.126v-5.348l5.347,5.347Zm7-1.649-1.849-1.849,10.13-10.13,1.849,1.849ZM329.8,332.94l-1.5,1.5-5.347-5.347,1.5-1.5a1.989,1.989,0,0,1,3.016,0l2.332,2.332A1.961,1.961,0,0,1,329.8,332.94Z" transform="translate(-267.537 -280.248)"/>
    <path id="Path_262" data-name="Path 262" class="cls-1" d="M53.2,67.627H22.88a3.5,3.5,0,0,1-3.5-3.5V5.83a3.5,3.5,0,0,1,3.5-3.5H59.709L71.027,13.65A1.166,1.166,0,1,0,72.676,12L61.017.342A1.163,1.163,0,0,0,60.2,0H22.88a5.836,5.836,0,0,0-5.83,5.83v58.3a5.837,5.837,0,0,0,5.83,5.83H53.2a1.166,1.166,0,1,0,0-2.332Z" transform="translate(-17.05)"/>
    <path id="Path_263" data-name="Path 263" class="cls-1" d="M215.278,409.6h-9.327a1.166,1.166,0,1,0,0,2.332h9.328a1.166,1.166,0,1,0,0-2.332Z" transform="translate(-179.133 -353.632)"/>
    <path id="Path_264" data-name="Path 264" class="cls-1" d="M111.717,154.766a1.167,1.167,0,0,0-1.166-1.166h-7a1.167,1.167,0,0,0-1.166,1.166v7a1.167,1.167,0,0,0,1.166,1.166h7a1.167,1.167,0,0,0,1.166-1.166Zm-2.332,5.83h-4.664v-4.664h4.664Z" transform="translate(-90.729 -132.612)"/>
    <path id="Path_265" data-name="Path 265" class="cls-1" d="M103.556,367.737h7a1.167,1.167,0,0,0,1.166-1.166v-7a1.167,1.167,0,0,0-1.166-1.166h-7a1.167,1.167,0,0,0-1.166,1.165v7a1.167,1.167,0,0,0,1.166,1.166Zm1.166-7h4.664V365.4h-4.664Z" transform="translate(-90.729 -309.437)"/>
    <path id="Path_266" data-name="Path 266" class="cls-1" d="M105.044,264.98a1.167,1.167,0,0,0,.82.342.945.945,0,0,0,.116,0,1.163,1.163,0,0,0,.855-.514l4.664-7a1.17,1.17,0,0,0-1.946-1.3l-3.875,5.813L104.351,261a1.166,1.166,0,0,0-1.649,1.649Z" transform="translate(-90.703 -221.013)"/>
  </g>
</svg>
