<svg xmlns="http://www.w3.org/2000/svg" viewBox="-14989 -15962 19.5 16.836">
  <defs>
    <style>
      .cls-1, .cls-2 {
        fill: #0fabb3;
      }

      .cls-1 {
        fill-rule: evenodd;
        opacity: 0.8;
      }
    </style>
  </defs>
  <g id="pdf" transform="translate(-16301.963 -16030.525)">
    <path id="Path_923" data-name="Path 923" class="cls-1" d="M8479.936,3295.938,8476,3292h7.875Z" transform="translate(-7157.481 -3210.576)"/>
    <path id="Path_1008" data-name="Path 1008" class="cls-2" d="M7.135-4.35a2.937,2.937,0,0,1-.867,2.27,3.5,3.5,0,0,1-2.462.8H3.14V1.63H.771V-7.139H3.806A3.709,3.709,0,0,1,6.3-6.413,2.588,2.588,0,0,1,7.135-4.35ZM3.14-3.21h.432a1.18,1.18,0,0,0,.849-.3,1.088,1.088,0,0,0,.315-.828q0-.888-.984-.888H3.14Zm11.606.27A4.529,4.529,0,0,1,13.538.442a4.641,4.641,0,0,1-3.4,1.187H7.3V-7.139h3.035a4.578,4.578,0,0,1,3.26,1.08A4.074,4.074,0,0,1,14.747-2.94Zm-2.459.084a2.787,2.787,0,0,0-.477-1.787,1.763,1.763,0,0,0-1.448-.582h-.69V-.314H10.2A1.911,1.911,0,0,0,11.784-.94,3.028,3.028,0,0,0,12.288-2.856ZM17.423,1.63H15.09V-7.139h5.182v1.9H17.423v1.673H20.05v1.9H17.423Z" transform="translate(1312.192 75.664)"/>
  </g>
</svg>
