<?xml version="1.0" encoding="utf-8"?>
<!-- Generator: Adobe Illustrator 22.0.1, SVG Export Plug-In . SVG Version: 6.00 Build 0)  -->
<svg version="1.1" id="Capa_1" xmlns="http://www.w3.org/2000/svg" xmlns:xlink="http://www.w3.org/1999/xlink" x="0px" y="0px"
	 viewBox="0 0 25.3 30.5" style="enable-background:new 0 0 25.3 30.5;" xml:space="preserve">
<style type="text/css">
	.st0{fill:#FFFFFF;}
	.st1{fill:#0FABB3;stroke:#0FABB3;stroke-width:0.5;}
</style>
<g id="recomendaciones" transform="translate(-15677 -17821)">
	<g id="Group_2626">
		<g id="Group_2625" transform="translate(57.333 253.477) rotate(180)">
			<path id="Path_1757" class="st0" d="M-15621.8-17598h-16.8c-1.2,0-2.2,1-2.2,2.2v1.4h-2c-1.2,0-2.2,1-2.2,2.2v22.6
				c0,1.2,1,2.2,2.2,2.2h16.8c1.2,0,2.2-1,2.2-2.2v-1.4h2c1.2,0,2.2-1,2.2-2.2v-22.6C-15619.7-17597-15620.6-17598-15621.8-17598z
				 M-15625.6-17569.7c0,0.2-0.2,0.4-0.4,0.4h-16.8c-0.2,0-0.4-0.2-0.4-0.4v-22.6c0-0.2,0.2-0.4,0.4-0.4h2v19.4c0,1.2,1,2.2,2.2,2.2
				h13.1L-15625.6-17569.7L-15625.6-17569.7z M-15621.4-17573.3c0,0.2-0.2,0.4-0.4,0.4h-16.8c-0.2,0-0.4-0.2-0.4-0.4l0,0v-22.6
				c0-0.2,0.2-0.4,0.4-0.4l0,0h16.8c0.2,0,0.4,0.2,0.4,0.4V-17573.3L-15621.4-17573.3z"/>
		</g>
	</g>
	<g id="little-table-grid" transform="translate(-76.898 218.733)">
		<g id="Group_2561" transform="translate(112.023 13.266)">
			<g id="Group_2560" transform="translate(0 0)">
				<path id="Path_1763" class="st1" d="M15660,17598.9c0-0.5-0.4-0.9-0.9-0.9h-13.1c-0.5,0-0.9,0.4-0.9,0.9l0,0v10.7
					c0,0.5,0.4,0.9,0.9,1h13.1c0.5,0,0.9-0.4,0.9-1V17598.9L15660,17598.9z M15649.7,17609.6h-3.8v-2.9h3.8V17609.6z
					 M15649.7,17605.9h-3.8v-2.9h3.8V17605.9z M15649.7,17602h-3.8v-2.9h3.8V17602z M15654.4,17609.6h-3.8v-2.9h3.8V17609.6z
					 M15654.4,17605.9h-3.8v-2.9h3.8V17605.9z M15654.4,17602h-3.8v-2.9h3.8V17602z M15659.1,17609.6h-3.8v-2.9h3.8V17609.6z
					 M15659.1,17605.9h-3.8v-2.9h3.8V17605.9z M15659.1,17602h-3.8v-2.9h3.8V17602z"/>
			</g>
		</g>
	</g>
</g>
</svg>
