<?xml version="1.0" encoding="utf-8"?>
<!-- Generator: Adobe Illustrator 22.0.1, SVG Export Plug-In . SVG Version: 6.00 Build 0)  -->
<svg version="1.1" id="Capa_1" xmlns="http://www.w3.org/2000/svg" xmlns:xlink="http://www.w3.org/1999/xlink" x="0px" y="0px"
	 viewBox="0 0 25 20" style="enable-background:new 0 0 25 20;" xml:space="preserve">
<style type="text/css">
	.st0{fill:#FFFFFF;}
</style>
<path id="twitter" class="st0" d="M25,2.3C24,2.7,23,3,22,3.1c1.1-0.6,1.9-1.6,2.3-2.8c-1,0.6-2.1,1-3.2,1.2c-1-1-2.3-1.6-3.7-1.6
	c-2.8,0-5.1,2.2-5.1,5c0,0.4,0,0.8,0.1,1.2C8.2,6,4.4,4.1,1.8,0.9C1.3,1.7,1.1,2.6,1.1,3.5c0,1.7,0.9,3.3,2.3,4.2
	C2.6,7.6,1.8,7.4,1.1,7v0.1c0,0.6,0.1,1.3,0.3,1.8c0.6,1.6,2.1,2.8,3.8,3.1c-0.4,0.1-0.9,0.2-1.4,0.2c-0.3,0-0.7,0-1-0.1
	c0.7,2.1,2.6,3.5,4.8,3.5c-1.8,1.4-4.1,2.2-6.4,2.1c-0.4,0-0.8,0-1.2-0.1C2.4,19.2,5.1,20,7.9,20c6.8,0.1,12.8-4.6,14.2-11.3
	c0.2-1,0.3-2,0.3-3V5C23.4,4.2,24.2,3.3,25,2.3z"/>
</svg>
