<?xml version="1.0" encoding="utf-8"?>
<!-- Generator: Adobe Illustrator 22.0.1, SVG Export Plug-In . SVG Version: 6.00 Build 0)  -->
<svg version="1.1" id="Capa_1" xmlns="http://www.w3.org/2000/svg" xmlns:xlink="http://www.w3.org/1999/xlink" x="0px" y="0px"
	 viewBox="0 0 27.2 20" style="enable-background:new 0 0 27.2 20;" xml:space="preserve">
<style type="text/css">
	.st0{fill:#FFFFFF;}
</style>
<path id="youtube" class="st0" d="M26.9,4.3c-0.1-1-0.5-2-1.1-2.8c-0.7-0.8-1.7-1.2-2.7-1.2C19.3,0,13.6,0,13.6,0l0,0
	c0,0-5.7,0-9.5,0.3c-1,0-2,0.4-2.7,1.2C0.8,2.3,0.4,3.3,0.3,4.3C0.1,5.8,0,7.4,0,8.9v2.2c0,1.5,0.1,3.1,0.3,4.6c0.1,1,0.5,2,1.1,2.8
	c0.8,0.8,1.9,1.2,3,1.2c2.2,0.2,9.3,0.3,9.3,0.3s5.7,0,9.5-0.3c1,0,2-0.5,2.7-1.2c0.6-0.8,1-1.8,1.1-2.8c0.2-1.5,0.3-3.1,0.3-4.6
	V8.9C27.2,7.4,27.1,5.8,26.9,4.3z M18.2,9.7l-7.3,4V5.7l3.3,1.8L18.2,9.7z"/>
</svg>
